<svg xmlns="http://www.w3.org/2000/svg" width="161" height="20" fill="none"><linearGradient id="a" x1="120.43" x2="120.43" y1="-3.5" y2="23" gradientUnits="userSpaceOnUse"><stop offset="0" stop-color="#da51c7"/><stop offset=".219" stop-color="#b81fa8"/><stop offset="1" stop-color="#911d9f"/></linearGradient><clipPath id="b"><path d="M9 2h12v16H9z"/></clipPath><rect width="161" height="20" fill="url(#a)" rx="4"/><g clip-path="url(#b)"><path fill="#fff" d="M14.58 10.743c.002-.005-.002-.011-.008-.011h-2.323c-.006 0-.01-.01-.006-.014l4.262-4.715c.006-.008.017 0 .014.008l-1.14 3.246c-.002.004.002.01.008.01h2.323c.007 0 .011.01.006.014l-4.261 4.716c-.006.007-.017 0-.014-.008zM16.878 3a.5.5 0 0 1 .352.148l2.622 2.621a.508.508 0 0 1 .148.356v10.376a.5.5 0 0 1-.5.499h-9a.5.5 0 0 1-.5-.5V3.504c0-.276.226-.502.5-.503zm0-1H10.5c-.828.003-1.5.675-1.5 1.503v12.998A1.5 1.5 0 0 0 10.5 18h9a1.5 1.5 0 0 0 1.5-1.5V6.126c0-.398-.16-.782-.44-1.063l-2.623-2.621A1.5 1.5 0 0 0 16.878 2z"/></g><path fill="#fff" d="M37.79 14.5v-8h5.202v1.215h-3.754v2.172h3.485v1.215h-3.485v2.183h3.785V14.5zm9.01.105c-.472 0-.893-.12-1.266-.363s-.667-.594-.883-1.055c-.216-.46-.324-1.02-.324-1.68 0-.666.11-1.228.328-1.687.222-.46.52-.808.895-1.043a2.299 2.299 0 0 1 1.254-.355c.351 0 .64.06.867.18.226.117.406.259.539.425.133.164.236.32.308.465h.06V6.5h1.417v8h-1.39v-.945h-.087c-.072.145-.178.3-.316.464-.138.162-.32.3-.547.415-.226.114-.512.171-.855.171zm.394-1.16c.3 0 .555-.08.766-.242.21-.164.371-.392.48-.684.11-.291.164-.631.164-1.019s-.054-.725-.164-1.012a1.44 1.44 0 0 0-.476-.668 1.232 1.232 0 0 0-.77-.238c-.315 0-.578.082-.789.246-.21.164-.37.39-.476.68-.107.289-.16.62-.16.992 0 .375.053.71.16 1.004.109.292.27.522.48.691.214.167.475.25.785.25zm4.473 1.055v-6h1.414v6zm.71-6.852a.825.825 0 0 1-.577-.222.718.718 0 0 1-.243-.543.71.71 0 0 1 .243-.543.817.817 0 0 1 .578-.227c.226 0 .42.076.578.227a.71.71 0 0 1 .242.543c0 .21-.08.392-.242.543a.816.816 0 0 1-.578.222zm5.32.852v1.094h-3.45V8.5zm-2.599-1.438h1.415v5.633c0 .19.028.336.085.438.06.099.138.167.235.203a.897.897 0 0 0 .32.055c.089 0 .17-.007.242-.02.076-.013.133-.025.172-.035l.238 1.105a3.148 3.148 0 0 1-.324.086 2.65 2.65 0 0 1-.508.055 2.306 2.306 0 0 1-.957-.16 1.489 1.489 0 0 1-.675-.555c-.164-.25-.245-.562-.243-.937zm6.84 7.438v-6h1.413v6zm.71-6.852a.825.825 0 0 1-.578-.222.718.718 0 0 1-.242-.543.71.71 0 0 1 .242-.543.817.817 0 0 1 .578-.227c.227 0 .42.076.578.227a.71.71 0 0 1 .243.543c0 .21-.081.392-.243.543a.816.816 0 0 1-.578.222zm3.736 3.336V14.5h-1.413v-6h1.351v1.02h.07c.138-.336.358-.603.66-.801.305-.198.682-.297 1.13-.297.414 0 .774.088 1.081.265.31.178.55.434.72.77.171.336.256.743.253 1.223v3.82h-1.414v-3.602c0-.4-.104-.714-.313-.941-.205-.227-.49-.34-.855-.34-.247 0-.467.055-.66.164-.19.107-.34.262-.45.465a1.57 1.57 0 0 0-.16.738zM76.478 14.5l-2.258-8h1.559l1.441 5.879h.075L78.834 6.5h1.418l1.543 5.883h.07L83.306 6.5h1.559l-2.258 8h-1.43l-1.601-5.613h-.063L77.908 14.5zm11.538.117c-.601 0-1.12-.125-1.558-.375a2.54 2.54 0 0 1-1.004-1.07c-.235-.464-.352-1.01-.352-1.637 0-.617.117-1.159.352-1.625.237-.469.568-.833.992-1.094.424-.263.923-.394 1.496-.394.37 0 .719.06 1.047.18.33.117.622.299.875.546.255.248.456.563.601.946.146.38.22.833.22 1.36v.433h-4.919v-.953h3.563a1.522 1.522 0 0 0-.176-.723 1.279 1.279 0 0 0-.48-.504 1.35 1.35 0 0 0-.711-.184c-.29 0-.543.07-.762.211-.219.138-.39.32-.512.547-.12.224-.18.47-.184.738v.833c0 .348.064.648.192.898.127.247.306.438.535.57.23.13.498.196.805.196.205 0 .392-.029.558-.086.167-.06.312-.147.434-.262s.215-.257.277-.426l1.32.149a2.058 2.058 0 0 1-.476.914 2.324 2.324 0 0 1-.89.601 3.41 3.41 0 0 1-1.243.211zm4.092-.117v-8h1.414v2.992h.059c.073-.146.175-.3.308-.465.133-.166.313-.308.54-.425.226-.12.515-.18.867-.18.463 0 .881.118 1.253.355.375.235.672.582.891 1.043.221.459.332 1.021.332 1.688 0 .659-.108 1.219-.324 1.68-.216.46-.51.812-.883 1.054s-.794.364-1.266.364c-.343 0-.629-.058-.855-.172a1.74 1.74 0 0 1-.547-.414 2.68 2.68 0 0 1-.316-.465h-.082v.945zm1.387-3c0 .388.054.728.164 1.02.112.291.272.52.48.683.211.162.466.242.766.242.312 0 .574-.083.785-.25.211-.169.37-.4.477-.691.109-.294.164-.629.164-1.004 0-.372-.054-.703-.16-.992s-.266-.516-.477-.68c-.211-.164-.474-.246-.79-.246-.301 0-.558.08-.769.238a1.465 1.465 0 0 0-.48.668c-.107.287-.16.624-.16 1.012zm8.6 3v-8h3c.615 0 1.13.115 1.547.344.419.229.736.544.949.945.216.399.325.852.325 1.36 0 .512-.109.968-.325 1.367a2.314 2.314 0 0 1-.957.941c-.422.227-.941.34-1.558.34h-1.989v-1.191h1.793c.36 0 .654-.063.883-.188s.399-.297.508-.516c.112-.218.168-.47.168-.754 0-.283-.056-.533-.168-.75a1.139 1.139 0 0 0-.512-.503c-.229-.123-.524-.184-.886-.184h-1.329V14.5zm11.006-2.523V8.5h1.414v6h-1.371v-1.066h-.062c-.136.336-.359.61-.668.824-.308.213-.687.32-1.137.32-.393 0-.741-.087-1.043-.262a1.814 1.814 0 0 1-.703-.77c-.17-.338-.254-.747-.254-1.226V8.5h1.414v3.602c0 .38.104.682.312.906.209.224.482.336.821.336.208 0 .41-.051.605-.153s.356-.252.481-.453c.127-.203.191-.457.191-.761zm3.096 2.523v-8h1.414v2.992h.058c.073-.146.176-.3.309-.465.133-.166.312-.308.539-.425.227-.12.516-.18.867-.18.464 0 .882.118 1.254.355.375.235.672.582.891 1.043.221.459.332 1.021.332 1.688 0 .659-.108 1.219-.324 1.68-.217.46-.511.812-.883 1.054a2.274 2.274 0 0 1-1.266.364c-.344 0-.629-.058-.855-.172a1.735 1.735 0 0 1-.547-.414 2.68 2.68 0 0 1-.317-.465h-.082v.945zm1.386-3c0 .388.055.728.164 1.02.112.291.273.52.481.683.211.162.466.242.766.242.312 0 .574-.083.785-.25.211-.169.37-.4.476-.691.11-.294.164-.629.164-1.004 0-.372-.053-.703-.16-.992s-.265-.516-.476-.68c-.211-.164-.474-.246-.789-.246-.302 0-.559.08-.77.238a1.46 1.46 0 0 0-.48.668 2.888 2.888 0 0 0-.161 1.012zm7.059-5v8h-1.414v-8zm1.619 8v-6h1.414v6zm.711-6.852a.824.824 0 0 1-.578-.222.716.716 0 0 1-.242-.543c0-.214.08-.395.242-.543a.816.816 0 0 1 .578-.227c.227 0 .419.076.578.227.162.148.242.33.242.543 0 .21-.08.392-.242.543a.815.815 0 0 1-.578.222zm7.064 2.438-1.289.14a1.03 1.03 0 0 0-.191-.367c-.089-.114-.208-.207-.359-.277s-.336-.105-.555-.105c-.294 0-.542.063-.742.191-.198.128-.296.293-.293.496a.518.518 0 0 0 .191.426c.133.11.352.2.656.27l1.024.218c.568.123.989.317 1.265.582.279.266.42.613.422 1.043a1.626 1.626 0 0 1-.332 1c-.216.287-.517.51-.902.672s-.828.242-1.328.242c-.735 0-1.326-.153-1.774-.46a1.852 1.852 0 0 1-.8-1.294l1.379-.132a.97.97 0 0 0 .398.613c.203.138.467.207.793.207.336 0 .605-.07.809-.207.205-.138.308-.309.308-.512a.532.532 0 0 0-.199-.426c-.13-.112-.333-.198-.609-.258l-1.024-.214c-.575-.12-1.001-.322-1.277-.606-.276-.286-.413-.648-.41-1.086-.003-.37.097-.69.3-.96a1.97 1.97 0 0 1 .856-.634c.367-.15.79-.226 1.269-.226.704 0 1.257.15 1.661.45.406.299.657.704.753 1.214zm2.874.898V14.5h-1.414v-8h1.383v3.02h.07c.141-.339.359-.606.653-.801.297-.198.674-.297 1.133-.297.416 0 .78.087 1.089.262.31.174.55.43.719.765.172.336.258.746.258 1.23V14.5h-1.414v-3.602c0-.403-.104-.717-.313-.941-.205-.227-.494-.34-.867-.34-.25 0-.474.055-.672.164a1.15 1.15 0 0 0-.461.465c-.109.203-.164.45-.164.738zm8.154 3.633c-.602 0-1.121-.125-1.559-.375a2.543 2.543 0 0 1-1.004-1.07c-.234-.464-.351-1.01-.351-1.637 0-.617.117-1.159.351-1.625.237-.469.568-.833.992-1.094.425-.263.924-.394 1.496-.394.37 0 .719.06 1.047.18.331.117.623.299.875.546.256.248.456.563.602.946.146.38.219.833.219 1.36v.433h-4.918v-.953h3.562a1.51 1.51 0 0 0-.176-.723 1.271 1.271 0 0 0-.48-.504 1.35 1.35 0 0 0-.711-.184c-.289 0-.543.07-.762.211-.218.138-.389.32-.511.547-.12.224-.181.47-.184.738v.833c0 .348.064.648.191.898.128.247.306.438.536.57a1.6 1.6 0 0 0 .804.196c.206 0 .392-.029.559-.086a1.23 1.23 0 0 0 .433-.262 1.09 1.09 0 0 0 .278-.426l1.32.149a2.058 2.058 0 0 1-.476.914 2.326 2.326 0 0 1-.891.601 3.41 3.41 0 0 1-1.242.211zm4.029-.117v-6h1.371v1h.063c.109-.346.296-.613.562-.8.268-.19.574-.286.918-.286.078 0 .165.004.262.012.099.005.181.014.246.027v1.3a1.49 1.49 0 0 0-.285-.054 2.635 2.635 0 0 0-.371-.027c-.258 0-.49.056-.696.168-.203.11-.363.262-.48.457s-.176.42-.176.676V14.5z"/><path fill="#e151ff" d="M30 0h1v20h-1z"/></svg>