<svg xmlns="http://www.w3.org/2000/svg" width="143" height="20" fill="none"><linearGradient id="a" x1="106.448" x2="106.448" y1="-3.5" y2="23" gradientUnits="userSpaceOnUse"><stop offset="0" stop-color="#da51c7"/><stop offset=".219" stop-color="#b81fa8"/><stop offset="1" stop-color="#911d9f"/></linearGradient><clipPath id="b"><path d="M6 4h18.308v12H6z"/></clipPath><rect width="142.308" height="20" fill="url(#a)" rx="4"/><g clip-path="url(#b)"><path fill="#fff" d="M23.076 6.615c-.513-.595-1.172-1.057-1.9-1.285A2.419 2.419 0 0 0 19.023 4c-1.336 0-2.423 1.086-2.423 2.421s1.087 2.421 2.423 2.421a2.42 2.42 0 0 0 2.33-1.795c.211.141.414.318.602.535.52.602.871 1.44.871 2.37a3.297 3.297 0 0 1-3.298 3.295c-.728 0-1.299-.14-1.843-.588-.575-.473-1.19-1.349-1.844-2.982-.692-1.73-1.423-2.872-2.279-3.575-.886-.73-1.829-.925-2.784-.925A4.777 4.777 0 0 0 6 9.952c0 1.3.49 2.478 1.232 3.337.735.85 1.767 1.437 2.874 1.437.274 0 .546-.033.795-.076l.441 1.175a.27.27 0 0 0 .482.047l1.792-2.918a.27.27 0 0 0-.164-.401l-3.185-.796a.27.27 0 0 0-.317.355l.417 1.11c-.088.01-.178.025-.261.025-.576 0-1.227-.316-1.754-.926a3.642 3.642 0 0 1-.871-2.37 3.297 3.297 0 0 1 3.298-3.295c.728 0 1.299.14 1.843.588.575.474 1.19 1.35 1.844 2.983.692 1.729 1.423 2.871 2.279 3.574.886.73 1.83.925 2.784.925a4.777 4.777 0 0 0 4.78-4.774c0-1.3-.49-2.48-1.233-3.337zm-4.052.747a.944.944 0 0 1-.942-.941c0-.518.423-.942.942-.942.52 0 .943.423.943.942a.944.944 0 0 1-.943.941z"/></g><path fill="#fff" d="M44.246 10.5c0 .862-.162 1.6-.485 2.215a3.43 3.43 0 0 1-1.312 1.406c-.552.326-1.179.488-1.88.488s-1.327-.162-1.882-.488c-.552-.328-.99-.798-1.313-1.41-.32-.615-.48-1.352-.48-2.211 0-.862.16-1.599.48-2.21.323-.616.76-1.086 1.313-1.411.555-.326 1.182-.488 1.883-.488s1.327.162 1.879.488c.554.325.992.795 1.312 1.41.323.612.485 1.349.485 2.211zm-1.457 0c0-.607-.095-1.118-.286-1.535-.187-.42-.448-.736-.78-.95-.334-.216-.718-.324-1.153-.324s-.82.108-1.152.325c-.334.213-.596.53-.786.949-.187.417-.28.928-.28 1.535 0 .607.093 1.12.28 1.54.19.416.452.732.786.948.333.214.717.32 1.152.32s.819-.106 1.152-.32c.333-.216.594-.532.781-.949.19-.42.286-.932.286-1.539zm2.93 6.25V8.5h1.39v.992h.082c.073-.146.176-.3.308-.465.133-.166.313-.308.54-.425.226-.12.515-.18.867-.18.463 0 .881.118 1.254.355.375.235.672.582.89 1.043.222.459.332 1.021.332 1.688 0 .659-.108 1.219-.324 1.68-.216.46-.51.812-.883 1.054a2.27 2.27 0 0 1-1.265.364c-.344 0-.63-.058-.856-.172a1.74 1.74 0 0 1-.547-.414 2.68 2.68 0 0 1-.316-.465h-.059v3.195zm1.386-5.25c0 .388.055.728.164 1.02.112.291.272.52.48.683.211.162.467.242.766.242.313 0 .574-.083.785-.25.211-.169.37-.4.477-.691.11-.294.164-.629.164-1.004 0-.372-.054-.703-.16-.992a1.49 1.49 0 0 0-.477-.68c-.21-.164-.474-.246-.789-.246-.302 0-.559.08-.77.238a1.465 1.465 0 0 0-.48.668c-.107.287-.16.624-.16 1.012zm8.31 3.117c-.602 0-1.122-.125-1.56-.375a2.54 2.54 0 0 1-1.003-1.07c-.234-.464-.352-1.01-.352-1.637 0-.617.118-1.159.352-1.625.237-.469.568-.833.992-1.094.425-.263.923-.394 1.496-.394.37 0 .719.06 1.047.18.33.117.622.299.875.546.255.248.456.563.602.946.145.38.218.833.218 1.36v.433h-4.918v-.953h3.563a1.521 1.521 0 0 0-.176-.723 1.278 1.278 0 0 0-.48-.504 1.35 1.35 0 0 0-.711-.184c-.29 0-.543.07-.762.211-.219.138-.39.32-.512.547-.12.224-.18.47-.183.738v.833c0 .348.064.648.191.898.128.247.306.438.535.57.23.13.498.196.805.196.206 0 .392-.029.559-.086.166-.06.31-.147.433-.262s.215-.257.277-.426l1.32.149a2.057 2.057 0 0 1-.476.914 2.324 2.324 0 0 1-.89.601c-.362.14-.776.211-1.243.211zm5.443-3.633V14.5h-1.414v-6h1.351v1.02h.07c.139-.336.359-.603.66-.801.306-.198.682-.297 1.13-.297.414 0 .774.088 1.082.265.31.178.55.434.719.77.171.336.256.743.253 1.223v3.82h-1.414v-3.602c0-.4-.104-.714-.312-.941-.206-.227-.491-.34-.856-.34-.247 0-.467.055-.66.164-.19.107-.34.262-.449.465a1.57 1.57 0 0 0-.16.738zm8.347 3.516v-6h1.414v6zm.711-6.852a.825.825 0 0 1-.578-.222.718.718 0 0 1-.242-.543.71.71 0 0 1 .242-.543.817.817 0 0 1 .578-.227c.227 0 .42.076.578.227a.71.71 0 0 1 .243.543c0 .21-.081.392-.243.543a.816.816 0 0 1-.578.222zm3.737 3.336V14.5h-1.415v-6h1.352v1.02h.07c.138-.336.358-.603.66-.801.305-.198.682-.297 1.13-.297.413 0 .774.088 1.081.265.31.178.55.434.72.77.171.336.256.743.253 1.223v3.82H76.09v-3.602c0-.4-.104-.714-.312-.941-.206-.227-.491-.34-.856-.34-.247 0-.467.055-.66.164-.19.107-.34.262-.45.465a1.57 1.57 0 0 0-.16.738zM88.91 9.2h-1.46a1.819 1.819 0 0 0-.231-.636 1.714 1.714 0 0 0-.988-.77 2.224 2.224 0 0 0-.684-.102c-.435 0-.82.11-1.156.329-.336.216-.6.533-.79.953-.19.416-.284.925-.284 1.527 0 .612.095 1.128.285 1.547.192.417.455.732.789.945.336.211.72.317 1.152.317.24 0 .464-.032.672-.094.211-.065.4-.16.566-.285a1.74 1.74 0 0 0 .668-1.086l1.461.008c-.054.38-.173.736-.355 1.07-.18.333-.416.627-.707.883a3.26 3.26 0 0 1-1.024.593c-.39.141-.824.211-1.3.211-.704 0-1.331-.162-1.883-.488s-.987-.796-1.305-1.41c-.318-.615-.476-1.352-.476-2.211 0-.862.16-1.599.48-2.21.32-.616.756-1.086 1.309-1.411s1.177-.488 1.875-.488c.445 0 .859.062 1.242.187s.724.309 1.023.55c.3.24.546.535.738.884.196.346.323.742.383 1.187zm4.047 5.418c-.586 0-1.094-.129-1.523-.387s-.763-.618-1-1.082c-.235-.463-.352-1.005-.352-1.625s.117-1.162.352-1.628a2.62 2.62 0 0 1 1-1.086c.43-.258.937-.387 1.523-.387.586 0 1.094.129 1.524.387.43.257.761.62.996 1.086.237.466.355 1.009.355 1.628s-.118 1.162-.355 1.625c-.235.464-.567.825-.996 1.082s-.938.387-1.524.387zm.008-1.133c.318 0 .583-.087.797-.261.213-.177.372-.414.476-.711.107-.297.16-.628.16-.992 0-.368-.053-.7-.16-.997a1.576 1.576 0 0 0-.476-.714c-.214-.177-.48-.266-.797-.266-.326 0-.596.089-.813.266a1.604 1.604 0 0 0-.48.714 2.994 2.994 0 0 0-.156.997c0 .364.052.695.156.992.107.297.267.534.48.71.217.175.487.262.813.262zm6.459 1.122c-.471 0-.893-.122-1.266-.364s-.666-.594-.883-1.055c-.216-.46-.324-1.02-.324-1.68 0-.666.11-1.228.328-1.687.222-.46.52-.808.895-1.043a2.299 2.299 0 0 1 1.254-.355c.351 0 .64.06.867.18.227.117.406.259.539.425.133.164.236.32.309.465h.058V6.5h1.418v8h-1.39v-.945h-.086c-.073.145-.179.3-.317.464-.138.162-.32.3-.547.415-.226.114-.511.171-.855.171zm.394-1.16c.3 0 .555-.081.766-.243.211-.164.371-.392.481-.683.109-.292.164-.632.164-1.02s-.055-.725-.164-1.012a1.442 1.442 0 0 0-.477-.668 1.232 1.232 0 0 0-.77-.238c-.315 0-.578.082-.789.246-.21.164-.37.39-.476.68-.107.289-.16.62-.16.992 0 .375.053.71.16 1.004.11.292.27.522.48.691.214.167.476.25.785.25zm7.129 1.171c-.601 0-1.121-.125-1.558-.375a2.537 2.537 0 0 1-1.004-1.07c-.235-.464-.352-1.01-.352-1.637 0-.617.117-1.159.352-1.625.237-.469.568-.833.992-1.094.424-.263.923-.394 1.496-.394.37 0 .719.06 1.047.18.331.117.622.299.875.546.255.248.456.563.602.946.145.38.218.833.218 1.36v.433h-4.918v-.953h3.563a1.521 1.521 0 0 0-.176-.723 1.285 1.285 0 0 0-.48-.504 1.355 1.355 0 0 0-.711-.184c-.289 0-.543.07-.762.211-.219.138-.389.32-.512.547-.12.224-.181.47-.183.738v.833c0 .348.063.648.191.898.128.247.306.438.535.57.229.13.498.196.805.196.206 0 .392-.029.558-.086.167-.06.312-.147.434-.262s.215-.257.277-.426l1.321.149a2.06 2.06 0 0 1-.477.914 2.33 2.33 0 0 1-.89.601c-.362.14-.777.211-1.243.211zm7.069-6.117v1.094h-3.547V8.5zm-2.661 6V7.934c0-.404.084-.74.25-1.008.17-.268.396-.469.68-.602s.599-.199.945-.199c.245 0 .463.02.653.059.19.039.331.074.422.105l-.282 1.094a2.372 2.372 0 0 0-.226-.055 1.372 1.372 0 0 0-.305-.031c-.263 0-.449.064-.558.191-.107.125-.161.305-.161.54V14.5zm5.347-8v8h-1.414v-8zm4.236 8.117c-.586 0-1.093-.129-1.523-.387s-.763-.618-1-1.082c-.234-.463-.352-1.005-.352-1.625s.118-1.162.352-1.628c.237-.467.57-.829 1-1.086.43-.258.937-.387 1.523-.387s1.094.129 1.524.387c.43.257.762.62.996 1.086.237.466.355 1.009.355 1.628s-.118 1.162-.355 1.625c-.234.464-.566.825-.996 1.082s-.938.387-1.524.387zm.008-1.133c.318 0 .584-.087.797-.261.214-.177.372-.414.477-.711.106-.297.16-.628.16-.992 0-.368-.054-.7-.16-.997a1.58 1.58 0 0 0-.477-.714c-.213-.177-.479-.266-.797-.266-.325 0-.596.089-.812.266a1.603 1.603 0 0 0-.481.714 2.999 2.999 0 0 0-.156.997c0 .364.052.695.156.992.107.297.267.534.481.71.216.175.487.262.812.262zm5.299 1.016-1.695-6h1.441l1.055 4.219h.054l1.079-4.219h1.425l1.079 4.195h.058L131.78 8.5h1.445l-1.699 6h-1.472l-1.125-4.055h-.082l-1.125 4.055z"/><path fill="#e151ff" d="M30 0h1v20h-1z"/></svg>