<?xml version="1.0" standalone="no"?>
<!DOCTYPE svg PUBLIC "-//W3C//DTD SVG 20010904//EN"
 "http://www.w3.org/TR/2001/REC-SVG-20010904/DTD/svg10.dtd">
<svg version="1.0" xmlns="http://www.w3.org/2000/svg"
 width="300.000000pt" height="300.000000pt" viewBox="0 0 300.000000 300.000000"
 preserveAspectRatio="xMidYMid meet">
<metadata>
Created by potrace 1.10, written by Peter Selinger 2001-2011
</metadata>
<g transform="translate(0.000000,300.000000) scale(0.100000,-0.100000)"
fill="#000000" stroke="none">
<path d="M683 2609 c-106 -7 -216 -30 -263 -54 -17 -9 -30 -13 -30 -10 0 3 -6
1 -12 -5 -7 -6 -31 -23 -54 -38 -81 -54 -131 -111 -167 -192 -55 -126 -51
-308 9 -438 33 -68 131 -169 195 -199 136 -64 237 -83 474 -90 168 -5 206 -9
235 -24 54 -29 128 -25 216 12 41 17 84 40 97 50 l22 19 -30 -11 c-16 -5 -65
-26 -107 -45 -64 -29 -81 -33 -99 -24 -11 7 -29 10 -39 7 -10 -3 -35 5 -56 18
-31 19 -43 21 -78 13 -43 -10 -106 -6 -302 18 -217 26 -330 69 -420 159 -85
85 -124 187 -124 325 0 246 136 402 402 461 122 27 364 29 483 4 189 -40 305
-117 369 -247 92 -188 91 -185 90 -288 -1 -73 -6 -109 -23 -153 -38 -98 -133
-199 -162 -170 -7 7 4 25 36 57 53 55 98 139 114 214 13 62 13 158 1 187 -6
13 -7 5 -3 -25 7 -62 -20 -196 -52 -260 -29 -58 -97 -136 -126 -145 -31 -10
-22 -21 34 -46 97 -44 92 -43 73 -14 -16 24 -15 26 28 74 88 99 117 253 76
411 -73 286 -215 403 -536 445 -65 8 -131 14 -146 13 -14 -2 -71 -6 -125 -9z"/>
<path d="M1998 2599 c-248 -36 -427 -193 -460 -404 -13 -86 -5 -203 18 -270
20 -59 69 -136 116 -185 35 -36 128 -106 128 -95 0 3 10 -1 23 -9 12 -7 56
-22 97 -32 62 -16 110 -19 270 -18 175 2 204 4 279 26 l84 24 23 -23 c20 -20
64 -30 106 -24 3 0 42 3 86 7 111 9 110 6 107 254 -3 273 -1 255 -30 268 -14
7 -44 12 -67 12 -32 0 -39 3 -34 15 5 13 -20 15 -188 15 -191 0 -193 0 -216
24 -45 49 -164 70 -255 45 -22 -6 -57 -25 -77 -41 -44 -34 -49 -26 -13 21 51
70 118 100 221 101 64 0 119 -19 175 -60 l44 -32 140 3 140 3 15 -27 c18 -32
30 -35 30 -7 0 16 7 20 35 20 41 0 76 29 70 59 -18 92 -122 212 -226 259 -92
43 -145 60 -219 72 -76 12 -339 11 -422 -1z m487 -43 c160 -44 275 -129 335
-248 l31 -63 -211 -3 -211 -2 -29 29 c-58 58 -203 79 -304 45 -88 -30 -146
-121 -146 -228 0 -55 40 -137 82 -169 81 -62 264 -73 376 -22 28 13 52 28 52
33 0 5 -33 7 -75 4 l-75 -5 0 87 0 86 270 0 270 0 0 -235 0 -235 -55 0 c-30 0
-55 -4 -55 -10 0 -6 -31 -10 -74 -10 -58 0 -75 3 -80 16 -11 29 -6 42 21 49
21 5 31 1 46 -17 l19 -23 -6 35 c-8 46 -21 57 -43 38 -31 -28 -135 -65 -243
-88 -130 -27 -317 -30 -430 -5 -181 39 -273 113 -354 285 -27 57 -31 78 -34
172 -3 87 0 120 16 175 52 170 181 273 399 318 96 20 425 14 508 -9z m-205
-360 c19 -9 49 -28 65 -41 26 -22 27 -25 10 -25 -49 0 -103 -72 -71 -95 9 -7
16 -31 18 -60 3 -45 5 -49 37 -60 41 -14 32 -22 -29 -26 l-45 -4 -3 73 c-4 93
-22 94 -22 1 l0 -71 -60 5 c-127 13 -200 84 -200 196 0 41 5 54 29 79 16 16
49 34 73 40 59 14 156 9 198 -12z"/>
<path d="M689 2317 c-52 -20 -80 -41 -111 -88 -69 -103 -37 -264 65 -323 43
-25 191 -55 205 -41 4 4 -12 24 -36 45 l-42 38 55 31 c30 17 60 31 67 31 8 0
37 -16 66 -35 l53 -36 25 56 c52 113 13 249 -87 305 -36 20 -61 25 -134 27
-58 2 -103 -2 -126 -10z m255 -38 c74 -37 69 -46 -26 -41 -76 4 -87 2 -138
-25 -43 -23 -59 -39 -79 -78 -33 -63 -33 -147 -2 -201 12 -20 19 -39 16 -42
-2 -3 -27 10 -55 29 -65 44 -94 100 -94 184 0 100 45 158 154 199 8 3 51 4 95
3 62 -2 91 -8 129 -28z m61 -79 c12 -14 20 -41 23 -79 4 -58 -11 -131 -28
-131 -5 0 -30 11 -56 25 -53 28 -67 27 -132 -14 -47 -29 -58 -50 -42 -81 9
-17 8 -20 -12 -20 -36 0 -60 50 -59 120 1 70 10 97 51 144 37 42 68 52 166 55
60 2 73 -1 89 -19z"/>
<path d="M1235 1615 c-38 -18 -65 -34 -59 -34 13 -1 144 57 144 64 0 9 -14 4
-85 -30z"/>
<path d="M985 1269 c-11 -4 -34 -8 -51 -8 -66 -2 -65 11 -65 -496 0 -434 1
-459 18 -477 17 -16 36 -18 168 -19 214 -1 219 0 239 14 10 7 22 34 27 60 4
25 17 55 29 67 15 15 20 33 20 75 l0 55 128 0 c109 0 315 13 362 24 8 1 32 6
54 11 69 14 170 71 213 119 53 61 72 121 69 221 -3 97 -27 152 -93 220 -71 72
-147 103 -318 131 -59 9 -777 13 -800 3z m881 -32 c136 -30 210 -82 270 -190
26 -47 29 -61 29 -147 0 -78 -4 -102 -22 -135 -30 -56 -79 -100 -143 -129
-102 -46 -186 -57 -457 -63 l-253 -5 0 -72 c0 -49 3 -66 10 -56 5 8 10 34 10
56 0 39 19 72 33 57 4 -3 7 -35 7 -70 l0 -63 -30 0 c-30 0 -30 0 -30 -60 l0
-60 -197 0 -198 0 2 467 3 467 50 -3 c43 -2 49 0 44 14 -6 15 24 16 397 12
315 -3 420 -8 475 -20z"/>
<path d="M1203 1233 c97 -2 257 -2 355 0 97 1 17 2 -178 2 -195 0 -275 -1
-177 -2z"/>
<path d="M1290 900 l0 -102 198 4 c170 3 202 6 237 23 25 13 43 30 49 48 15
42 -3 79 -49 102 -35 17 -65 20 -237 23 l-198 4 0 -102z m60 24 l0 -54 143 0
c78 0 170 6 205 14 56 11 63 11 60 -3 -2 -9 -21 -25 -43 -36 -35 -17 -62 -19
-220 -20 l-180 0 -3 68 c-3 67 9 104 29 91 5 -3 9 -30 9 -60z m350 33 c46 -16
50 -41 9 -56 -33 -11 -305 -16 -333 -5 -16 6 -22 54 -9 67 11 12 296 7 333 -6z"/>
</g>
</svg>
